<?xml version="1.0" encoding="UTF-8" standalone="no"?>
<!-- Created with Inkscape (http://www.inkscape.org/) -->

<svg
   width="803.57349mm"
   height="158.45355mm"
   viewBox="0 0 803.57349 158.45355"
   version="1.1"
   id="svg5"
   xml:space="preserve"
   inkscape:version="1.4.2 (ebf0e940, 2025-05-08)"
   sodipodi:docname="logo-icon.svg"
   xmlns:inkscape="http://www.inkscape.org/namespaces/inkscape"
   xmlns:sodipodi="http://sodipodi.sourceforge.net/DTD/sodipodi-0.dtd"
   xmlns="http://www.w3.org/2000/svg"
   xmlns:svg="http://www.w3.org/2000/svg"><sodipodi:namedview
     id="namedview7"
     pagecolor="#ffffff"
     bordercolor="#000000"
     borderopacity="0.25"
     inkscape:showpageshadow="2"
     inkscape:pageopacity="0.0"
     inkscape:pagecheckerboard="0"
     inkscape:deskcolor="#d1d1d1"
     inkscape:document-units="mm"
     showgrid="false"
     inkscape:zoom="0.48739885"
     inkscape:cx="542.67671"
     inkscape:cy="236.97225"
     inkscape:window-width="1264"
     inkscape:window-height="888"
     inkscape:window-x="0"
     inkscape:window-y="33"
     inkscape:window-maximized="0"
     inkscape:current-layer="layer2" /><defs
     id="defs2"><linearGradient
       id="linearGradient65606"
       inkscape:swatch="solid"><stop
         style="stop-color:#cb7932;stop-opacity:1;"
         offset="0"
         id="stop65604" /></linearGradient><filter
       style="color-interpolation-filters:sRGB"
       inkscape:label="Drop Shadow"
       id="filter80006"
       x="-0.030477617"
       y="-0.026353637"
       width="1.0736542"
       height="1.063688"><feFlood
         flood-opacity="0.498039"
         flood-color="rgb(0,0,0)"
         result="flood"
         id="feFlood79996" /><feComposite
         in="flood"
         in2="SourceGraphic"
         operator="out"
         result="composite1"
         id="feComposite79998" /><feGaussianBlur
         in="composite1"
         stdDeviation="1"
         result="blur"
         id="feGaussianBlur80000" /><feOffset
         dx="1"
         dy="1"
         result="offset"
         id="feOffset80002" /><feComposite
         in="offset"
         in2="SourceGraphic"
         operator="atop"
         result="composite2"
         id="feComposite80004" /></filter><clipPath
       clipPathUnits="userSpaceOnUse"
       id="clipPath1"><path
         id="path1"
         style="display:inline;fill:#000000;stroke-width:0.264583"
         d="M -17.832503,-17.832503 V 169.12094 H 178.32503 V -17.832503 Z m 96.717095,43.32242 c 4.052475,0.04449 8.082841,0.352461 12.112953,0.819588 2.26273,0.262271 4.543925,0.33578 6.783568,0.828374 1.789956,0.393681 3.241657,1.686369 3.521227,3.402893 0.23612,1.449658 -0.4793,2.564268 -1.465539,3.556373 -1.287063,1.294699 -2.849282,2.288289 -3.975468,3.763592 -2.569739,3.366336 -4.401325,7.079692 -5.345411,11.210171 -0.176382,0.771631 0.167063,1.408224 0.908473,1.816942 3.065163,1.689748 6.486483,2.020157 9.840745,2.609143 0.42038,0.07379 0.85142,0.106193 1.2609,0.218591 1.56089,0.428559 2.69374,-0.135197 3.82096,-1.255736 2.63927,-2.623611 4.90508,-5.576412 7.47861,-8.254278 0.8567,-0.891429 1.91027,-1.102482 2.92437,-0.697116 2.34863,0.938755 4.19978,3.058041 4.06073,5.830136 -0.0657,1.309484 -0.37089,2.614308 -1.08313,3.742407 -2.55264,4.042838 -5.75481,7.469129 -9.76582,10.108943 -1.70199,1.120167 -3.54138,1.502873 -5.56555,1.183391 -2.73376,-0.431453 -5.476307,-0.810228 -8.220684,-1.169437 -1.605561,-0.210108 -3.219511,-0.196834 -4.825029,0.06305 -0.704107,0.113978 -1.157624,0.500603 -1.346171,1.195277 -0.382654,1.409681 -0.905566,2.798172 -1.114661,4.232817 -0.189195,1.298094 0.194969,2.596269 1.383896,3.367752 1.727369,1.120873 3.136955,2.587884 4.612121,3.986321 2.310556,2.190406 4.212897,4.725495 5.973278,7.356655 1.36854,2.045496 2.43722,4.267057 3.47886,6.501929 2.25232,4.832511 4.69213,9.571201 7.26364,14.244095 1.20185,2.18398 2.27744,4.44271 3.30367,6.71587 0.77259,1.71135 0.12565,3.54025 -1.44746,4.55992 -1.20378,0.78035 -2.42851,1.51281 -3.81733,1.94303 -2.45497,0.7605 -3.58782,0.0357 -4.51446,-1.63607 -2.17024,-3.91556 -4.46613,-7.76125 -6.701915,-11.64064 -0.683527,-1.18602 -1.375706,-2.36965 -1.991608,-3.59099 -0.495245,-0.982051 -1.313757,-1.670285 -2.028817,-2.45101 -0.387856,-0.423486 -0.937501,-0.506677 -1.522389,-0.422711 -1.529895,0.219623 -2.918836,0.834382 -4.319114,1.44177 -4.173569,1.810361 -8.063124,4.177461 -12.143962,6.170681 -1.491795,0.72865 -2.864345,0.61813 -4.106209,-0.34365 -1.317212,-1.02013 -2.280576,-2.3556 -2.786393,-3.98167 -0.381794,-1.227363 0.05833,-2.266763 0.913638,-3.049419 1.229876,-1.125389 2.519497,-2.214613 3.907771,-3.131076 2.024422,-1.336419 4.235913,-2.395165 6.225461,-3.777031 2.037712,-1.41529 4.339476,-2.33576 6.38824,-3.710368 1.074706,-0.721082 1.113002,-0.910365 0.510048,-2.042253 -0.541809,-1.01713 -1.408925,-1.532943 -2.424142,-1.95802 -2.09219,-0.875974 -4.320593,-0.995682 -6.520534,-1.272272 -3.445277,-0.433134 -6.867552,-0.08292 -10.286709,0.352433 -1.19847,0.152614 -2.053672,0.789212 -2.56005,1.835028 -1.108057,2.288513 -2.630914,4.314867 -3.955315,6.466274 -1.945219,3.15986 -3.840596,6.341583 -5.485453,9.691914 -1.732571,3.52899 -3.172486,7.18416 -4.938717,10.69598 -1.18413,2.35442 -2.971369,2.64532 -4.816243,2.38177 -1.616815,-0.23098 -3.07831,-0.95339 -4.346506,-1.99109 -1.144534,-0.93656 -1.276442,-1.88787 -0.677476,-3.45716 1.543862,-4.04486 3.578966,-7.86385 5.412073,-11.774467 1.314807,-2.80493 2.694779,-5.591527 4.249351,-8.268229 1.80443,-3.106899 3.159893,-6.430883 4.890141,-9.564275 0.893268,-1.617644 1.877398,-3.201392 3.117122,-4.599202 1.693416,-1.909371 3.991983,-2.456246 6.361885,-2.867525 2.721221,-0.472255 5.468705,-0.29718 8.206219,-0.368451 0.426715,-0.01143 0.856872,0.01916 1.280025,-0.02326 0.898668,-0.08989 1.47741,-0.604078 1.607653,-1.488797 0.356923,-2.424414 0.224095,-4.867902 0.164333,-7.302913 -0.01934,-0.789712 -0.654534,-1.173427 -1.403532,-1.358574 -1.990815,-0.492125 -4.036497,-0.580448 -6.058546,-0.83044 -2.354506,-0.291057 -4.692065,-0.701212 -7.060033,-0.903822 -4.255855,-0.364109 -8.464048,-0.284363 -12.531019,1.193726 -1.727668,0.627888 -3.249112,1.653334 -4.742346,2.717665 -0.663022,0.47258 -1.24568,1.173292 -2.274279,0.719852 -0.871771,-0.384313 -1.232901,-0.92162 -1.245402,-1.88309 -0.04324,-3.324418 0.563409,-6.531856 1.580782,-9.675894 0.385019,-1.189816 1.235144,-1.964852 2.401403,-2.304251 3.733644,-1.086541 7.55526,-1.119262 11.397237,-0.860415 2.24591,0.15131 4.497697,0.224176 6.740157,0.412896 4.151151,0.34935 8.313547,0.492088 12.469522,0.747757 0.796708,0.04899 1.48813,-0.271454 2.202968,-0.521414 0.336749,-0.117742 0.413994,-0.42667 0.448551,-0.737939 0.320686,-2.888734 1.14455,-5.659641 1.947685,-8.437729 0.228976,-0.792049 0.4464,-1.578666 0.802534,-2.326473 0.168283,-0.353359 0.289071,-0.73736 0.374137,-1.120344 0.210566,-0.948052 -0.227052,-1.576628 -1.20096,-1.601454 -1.521219,-0.03876 -3.045949,0.04092 -4.642093,-0.164846 -4.114564,-0.01513 -7.908581,0.999582 -11.564152,2.640663 -1.015381,0.45583 -2.130605,0.884973 -3.096969,0.01913 -1.004062,-0.899579 -0.925766,-2.117495 -0.587044,-3.31918 0.411591,-1.460204 1.345938,-2.584376 2.386417,-3.625617 3.660098,-3.662765 8.194099,-4.939584 13.23847,-4.841048 0.849696,0.01662 1.702429,-0.152479 2.552816,-0.143144 z" /></clipPath></defs><g
     inkscape:groupmode="layer"
     id="layer2"
     inkscape:label="Layer 1"
     style="display:inline"
     transform="translate(-2.8218611,-1.5586296)"><path
       style="font-weight:bold;font-size:3.175px;font-family:Montserrat;-inkscape-font-specification:'Montserrat Bold';fill:#1a1a1a;stroke-width:11.4198"
       d="M 205.45109,129.16318 V 33.236592 h 43.57814 q 15.62233,0 27.54458,6.029676 11.92226,5.892628 18.63717,16.581619 6.71487,10.688926 6.71487,25.352025 0,14.526005 -6.71487,25.352008 -6.71491,10.68895 -18.63717,16.71861 -11.92225,5.89265 -27.54458,5.89265 z m 22.20011,-18.22604 h 20.28177 q 9.59264,0 16.58149,-3.56303 7.12595,-3.6998 10.96309,-10.414851 3.97422,-6.71486 3.97422,-15.759347 0,-9.181584 -3.97422,-15.759403 -3.83714,-6.714872 -10.96309,-10.277842 -6.98885,-3.700262 -16.58149,-3.700262 H 227.6512 Z m 126.07502,19.32231 q -12.60751,0 -22.20013,-4.93335 -9.45579,-4.93336 -14.66315,-13.42971 -5.20737,-8.63342 -5.20737,-19.596423 0,-11.100055 5.0703,-19.596435 5.20756,-8.633402 14.11498,-13.429744 8.90742,-4.933363 20.1445,-4.933363 10.82595,0 19.45944,4.659288 8.77055,4.52225 13.84081,13.155668 5.07049,8.496334 5.07049,20.418664 0,1.233548 -0.14846,2.877998 -0.14846,1.507739 -0.27538,2.878027 H 329.04738 V 85.859619 h 48.64847 l -8.22223,3.699798 q 0,-5.755591 -2.32961,-10.003781 -2.32985,-4.247951 -6.4407,-6.577804 -4.11114,-2.466727 -9.59267,-2.466727 -5.48153,0 -9.72972,2.466727 -4.11109,2.329853 -6.44071,6.714842 -2.32943,4.247966 -2.32943,10.140805 v 3.288909 q 0,6.029684 2.60337,10.689002 2.74087,4.5222 7.5372,6.98891 4.9334,2.32984 11.51121,2.32984 5.8926,0 10.27786,-1.78125 4.52216,-1.78131 8.22222,-5.34448 l 11.37413,12.3334 q -5.0703,5.75559 -12.74457,8.90749 -7.67408,3.01482 -17.67774,3.01482 z m 86.47085,0 q -12.60726,0 -22.20013,-4.93335 -9.45556,-4.93336 -14.6629,-13.42971 -5.20758,-8.63342 -5.20758,-19.596423 0,-11.100055 5.07049,-19.596435 5.20736,-8.633402 14.115,-13.429744 8.90743,-4.933363 20.14447,-4.933363 10.82599,0 19.45944,4.659288 8.77036,4.52225 13.84085,13.155668 5.07027,8.496334 5.07027,20.418664 0,1.233548 -0.14846,2.877998 -0.14847,1.507739 -0.27131,2.878027 H 415.52176 V 85.859619 h 48.64842 l -8.22219,3.699798 q 0,-5.755591 -2.32983,-10.003781 -2.32963,-4.247951 -6.44093,-6.577804 -4.11109,-2.466727 -9.59266,-2.466727 -5.48154,0 -9.72973,2.466727 -4.11109,2.329853 -6.4407,6.714842 -2.32943,4.247966 -2.32943,10.140805 v 3.288909 q 0,6.029684 2.60337,10.689002 2.74088,4.5222 7.5372,6.98891 4.93344,2.32984 11.51123,2.32984 5.89257,0 10.27787,-1.78125 4.52212,-1.78131 8.22218,-5.34448 l 11.37414,12.3334 q -5.07027,5.75559 -12.74457,8.90749 -7.67409,3.01482 -17.67775,3.01482 z m 93.46013,0 q -9.31867,0 -16.30752,-4.11108 -6.98907,-4.11118 -10.9631,-12.47049 -3.83712,-8.49636 -3.83712,-21.377913 0,-13.01863 3.69984,-21.377957 3.70027,-8.359297 10.68889,-12.470433 6.98907,-4.111152 16.71879,-4.111152 10.41474,0 18.63719,4.796341 8.35928,4.659304 13.15561,13.155638 4.93339,8.496349 4.93339,20.007563 0,11.648213 -4.93339,20.144593 -4.79633,8.49632 -13.15561,13.15563 -8.22245,4.65926 -18.63719,4.65926 z m -43.57815,25.48908 V 55.436743 h 20.41866 v 15.074183 l -0.41108,21.926052 1.37089,21.789032 v 41.52252 z m 39.87811,-43.0299 q 5.34447,0 9.45556,-2.46673 4.24841,-2.46664 6.7149,-6.98893 2.60355,-4.659307 2.60355,-10.963003 0,-6.440796 -2.60355,-10.963062 -2.46671,-4.522251 -6.7149,-6.988933 -4.11109,-2.466682 -9.45556,-2.466682 -5.34447,0 -9.59263,2.466682 -4.248,2.466682 -6.7149,6.988933 -2.46672,4.522266 -2.46672,10.963062 0,6.303696 2.46672,10.963003 2.46671,4.52229 6.7149,6.98893 4.24797,2.46673 9.59263,2.46673 z m 54.67808,16.44455 V 55.436743 h 21.37807 v 73.726437 z m 10.68894,-84.004284 q -5.8926,0 -9.59266,-3.426181 -3.70028,-3.425713 -3.70028,-8.496311 0,-5.070451 3.70028,-8.496399 3.69984,-3.425713 9.59266,-3.425713 5.89278,0 9.59263,3.288926 3.70028,3.152048 3.70028,8.222287 0,5.344432 -3.70028,8.907443 -3.56296,3.42616 -9.59263,3.42616 z m 30.55961,84.004284 V 55.436743 h 20.41866 V 75.85539 l -3.83717,-6.166691 q 3.97404,-7.400047 11.37433,-11.374175 7.39992,-3.974308 16.85567,-3.974308 8.77035,0 15.62229,3.562985 6.98884,3.425738 10.96286,10.688955 3.97445,7.126002 3.97445,18.363094 v 42.20771 H 679.8769 V 90.244157 q 0,-8.907461 -3.97425,-13.155621 -3.83712,-4.248398 -10.96307,-4.248398 -5.07031,0 -9.18163,2.192606 -3.97419,2.055448 -6.3036,6.440766 -2.19255,4.385228 -2.19255,11.237117 v 36.452103 z m 112.37099,-15.07419 0.54877,-26.037214 34.39657,-32.615033 h 25.48911 l -33.02609,33.574299 -11.1002,9.04453 z m -17.67775,15.07419 V 27.48099 h 21.37781 v 101.68219 z m 54.95208,0 -24.9408,-30.970588 13.42978,-16.581612 37.41116,47.5522 z"
       id="text1"
       aria-label="Deepink"
       inkscape:label="Deepink" /><g
       id="g1"
       clip-path="url(#clipPath1)"
       style="display:inline;fill:#cd4d0a;fill-opacity:1"
       transform="matrix(0.97299971,0,0,0.97299971,7.1991853,3.2237098)"
       inkscape:label="Logo"><path
         id="path403"
         style="display:inline;fill:#cd4d0a;fill-opacity:1;stroke-width:267.819;stroke-linejoin:bevel"
         d="M 105.57598,1.0123413 C 104.92909,0.9678622 104.2031,0.9742732 103.37405,1.0340453 90.034324,1.9958041 74.282495,2.6654253 67.382967,6.6440389 58.186301,11.164945 54.190626,12.492025 38.442098,17.233057 26.032837,19.546482 26.213766,26.967192 20.727417,35.863444 18.48146,40.366812 13.332229,53.505583 10.536825,60.067135 8.6581261,64.984632 5.1813999,73.702361 2.6944092,80.926843 c -1.6576611,2.076064 1.6607689,12.1687 3.861263,20.978567 3.9850418,14.62352 1.9873572,21.16512 9.8329918,27.18955 5.348318,4.16225 14.4503,10.70818 19.107877,15.88327 4.179872,4.02063 4.126941,6.24658 25.039299,8.39949 15.722837,1.11799 18.590755,3.38364 33.558675,4.85655 11.862875,-0.15923 14.934655,2.10162 21.416785,-1.67173 5.31242,-3.51389 7.88194,-5.53348 19.06808,-12.69897 8.6384,-5.33432 11.18068,-6.86913 11.70368,-12.77855 0.4039,-2.48476 1.23948,-6.39687 2.58744,-11.86284 2.01012,-5.82648 4.33129,-10.94007 3.54294,-20.063375 -0.31494,-3.131051 -0.60298,-5.505538 -0.19896,-9.434566 0.0491,-3.681129 1.69791,-6.597686 1.11466,-12.977502 0.73366,-7.156551 5.08235,-16.811321 -0.95549,-24.402645 -4.23423,-5.660323 -8.45322,-11.443459 -9.79269,-13.693738 -8.60448,-14.038517 -7.21679,-20.704719 -13.1563,-23.030119 -6.56563,-3.273736 -9.4778,-4.634514 -13.93248,-7.1339313 -4.75047,-4.3629339 -5.38796,-7.162609 -9.9162,-7.4739624 z" /></g></g></svg>
