<?xml version="1.0" encoding="UTF-8" standalone="no"?>
<!-- Created with Inkscape (http://www.inkscape.org/) -->

<svg
   width="160mm"
   height="160mm"
   viewBox="0 0 160 160"
   version="1.1"
   id="svg5"
   xml:space="preserve"
   inkscape:version="1.4.2 (ebf0e940, 2025-05-08)"
   sodipodi:docname="app.svg"
   xmlns:inkscape="http://www.inkscape.org/namespaces/inkscape"
   xmlns:sodipodi="http://sodipodi.sourceforge.net/DTD/sodipodi-0.dtd"
   xmlns:xlink="http://www.w3.org/1999/xlink"
   xmlns="http://www.w3.org/2000/svg"
   xmlns:svg="http://www.w3.org/2000/svg"><sodipodi:namedview
     id="namedview7"
     pagecolor="#ffffff"
     bordercolor="#000000"
     borderopacity="0.25"
     inkscape:showpageshadow="2"
     inkscape:pageopacity="0.0"
     inkscape:pagecheckerboard="0"
     inkscape:deskcolor="#d1d1d1"
     inkscape:document-units="mm"
     showgrid="false"
     inkscape:zoom="0.46672399"
     inkscape:cx="262.46776"
     inkscape:cy="295.67796"
     inkscape:window-width="1112"
     inkscape:window-height="657"
     inkscape:window-x="143"
     inkscape:window-y="120"
     inkscape:window-maximized="0"
     inkscape:current-layer="layer2" /><defs
     id="defs2"><linearGradient
       inkscape:collect="always"
       id="linearGradient65630"><stop
         style="stop-color:#cb7932;stop-opacity:1;"
         offset="0"
         id="stop65626" /><stop
         style="stop-color:#cb7932;stop-opacity:0;"
         offset="0.72432435"
         id="stop65628" /></linearGradient><linearGradient
       id="linearGradient65606"
       inkscape:swatch="solid"><stop
         style="stop-color:#cb7932;stop-opacity:1;"
         offset="0"
         id="stop65604" /></linearGradient><linearGradient
       inkscape:collect="always"
       xlink:href="#linearGradient65630"
       id="linearGradient65632"
       x1="150.77834"
       y1="156.63206"
       x2="177.27991"
       y2="156.63206"
       gradientUnits="userSpaceOnUse"
       gradientTransform="matrix(1.0122305,0,0,1.0122305,-30.027966,-64.692223)" /><filter
       style="color-interpolation-filters:sRGB"
       inkscape:label="Drop Shadow"
       id="filter80006"
       x="-0.030477617"
       y="-0.026353636"
       width="1.0736542"
       height="1.063688"><feFlood
         flood-opacity="0.498039"
         flood-color="rgb(0,0,0)"
         result="flood"
         id="feFlood79996" /><feComposite
         in="flood"
         in2="SourceGraphic"
         operator="out"
         result="composite1"
         id="feComposite79998" /><feGaussianBlur
         in="composite1"
         stdDeviation="1"
         result="blur"
         id="feGaussianBlur80000" /><feOffset
         dx="1"
         dy="1"
         result="offset"
         id="feOffset80002" /><feComposite
         in="offset"
         in2="SourceGraphic"
         operator="atop"
         result="composite2"
         id="feComposite80004" /></filter><filter
       style="color-interpolation-filters:sRGB;"
       inkscape:label="Drop Shadow"
       id="filter31"
       x="-0.015238809"
       y="-0.013176818"
       width="1.0368271"
       height="1.031844"><feFlood
         result="flood"
         in="SourceGraphic"
         flood-opacity="0.498039"
         flood-color="rgb(0,0,0)"
         id="feFlood30" /><feGaussianBlur
         result="blur"
         in="SourceGraphic"
         stdDeviation="0.500000"
         id="feGaussianBlur30" /><feOffset
         result="offset"
         in="blur"
         dx="0.500000"
         dy="0.500000"
         id="feOffset30" /><feComposite
         result="comp1"
         operator="out"
         in="flood"
         in2="offset"
         id="feComposite30" /><feComposite
         result="comp2"
         operator="atop"
         in="comp1"
         in2="SourceGraphic"
         id="feComposite31" /></filter></defs><g
     inkscape:groupmode="layer"
     id="layer2"
     inkscape:label="Layer 1"
     style="display:inline"><path
       style="display:inline;fill:#813b0c;fill-opacity:1;stroke-width:267.819;stroke-linejoin:bevel"
       d="m 38.442351,17.233306 c 15.748528,-4.741032 19.743987,-6.06811 28.940653,-10.5890157 6.899528,-3.9786136 22.651188,-4.648385 35.990916,-5.6101437 6.6324,-0.47817774 6.68893,2.4659491 12.11803,7.4521593 4.45468,2.4994171 7.36728,3.8599561 13.93291,7.1336921 5.93951,2.3254 4.55158,8.991672 13.15606,23.030189 1.33947,2.250279 5.55862,8.033739 9.79285,13.694062 6.03784,7.591324 1.68906,17.245948 0.9554,24.402499 0.58325,6.379816 -1.06549,9.296386 -1.11464,12.977515 -0.40402,3.929028 -0.1159,6.303535 0.19904,9.434586 0.78835,9.123301 -1.53281,14.236921 -3.54293,20.063401 -1.34796,5.46597 -2.18364,9.37812 -2.58754,11.86288 -0.523,5.90942 -3.06525,7.44416 -11.70365,12.77848 -11.18614,7.16549 -13.75577,9.18496 -19.06819,12.69885 -6.48213,3.77335 -9.554,1.51272 -21.41688,1.67195 C 79.12646,156.7615 76.258811,154.49579 60.535974,153.3778 39.623616,151.22489 39.676408,148.99887 35.496536,144.97824 30.838959,139.80315 21.736857,133.25696 16.388539,129.09471 8.5429047,123.07028 10.540926,116.52915 6.555884,101.90563 4.3553899,93.095765 1.0368154,83.002697 2.6944765,80.926633 5.1814672,73.702151 8.6580166,64.984559 10.536715,60.067062 13.332119,53.50551 18.481691,40.36697 20.727648,35.863602 26.213997,26.96735 26.03309,19.546731 38.442351,17.233306 Z"
       id="path403"
       sodipodi:nodetypes="ccccccccccccccccccccccc" /><path
       style="display:inline;fill:#b96726;fill-opacity:1;stroke-width:267.819;stroke-linejoin:bevel"
       d="m 148.7165,66.537178 -1.18224,12.385451 -0.73187,20.323394 -0.2252,4.785297 -0.67556,7.03719 -1.97042,5.68604 -1.57632,4.67269 -1.01336,4.61639 -0.1126,3.09636 c 0,0 0.45038,3.49044 -1.12594,4.4475 -1.57633,0.95706 -10.80912,7.60016 -10.80912,7.60016 l -10.75281,7.31867 -6.98089,4.72899 -2.53339,0.84446 -3.49044,0.0563 -11.597277,-0.39409 -3.771925,-0.33778 -9.626865,-1.63263 -14.355858,-2.30819 -11.878767,-1.23855 -7.487564,-1.35114 -3.37785,-1.63263 -3.152657,-2.58968 -3.37785,-3.65933 -4.447499,-4.05343 -7.543863,-5.01047 -4.560095,-4.33491 -3.152656,-2.53338 -1.745224,-2.70228 -1.463734,-6.86828 -1.970411,-8.38833 L 10.393618,94.742224 7.7476387,84.721262 7.6350422,82.018991 9.5491571,76.89592 16.980423,59.66889 l 6.361614,-16.776648 5.460855,-9.626865 3.54674,-8.444621 2.2519,-2.308197 4.954178,-2.533385 7.037183,-1.688925 2.702278,-0.844461 8.726108,-2.702278 4.334908,-1.294843 4.053416,-1.801519 4.447501,-2.3081986 5.01047,-1.9141132 3.265253,0.1688927 5.517163,-0.6755687 6.192711,-1.0696524 14.806239,0.7881632 2.1956,1.1822488 1.63262,2.4770872 1.85782,1.688925 5.62974,1.80152 5.34827,2.814872 2.92747,2.927468 3.15265,3.940825 1.91412,5.51715 1.35113,5.742345 2.3645,4.278604 1.18225,4.053417 2.70228,5.967534 2.3082,-2.758571 3.15265,3.321543 4.72899,5.911244 1.35114,2.30819 -0.0563,3.771935 z"
       id="path10539" /><path
       style="display:inline;fill:#2d1200;fill-opacity:0.0446808;stroke-width:267.819;stroke-linejoin:bevel"
       d="m 105.89755,154.19387 -11.643926,-0.39809 -5.831922,-12.75857 1.37338,0.13933 c 0,0 0.895693,-0.39808 0.975305,-0.33836 0.07966,0.0597 2.249176,0.0995 2.249176,0.0995 l 2.249166,-0.49761 1.851087,-0.17914 1.373394,-0.25876 2.01032,-0.23884 2.36859,-0.13933 0.81607,0.0995 1.07482,5.39402 0.63694,0.21896 0.25875,0.75635 0.71655,0.75636 0.39808,1.15444 0.63694,1.05492 0.33837,1.27387 0.31847,1.77147 0.41798,1.71176 -0.0597,0.47769 z"
       id="path846" /><path
       style="fill:#2d1200;fill-opacity:0.0446808;stroke-width:267.819;stroke-linejoin:bevel"
       d="m 31.786659,119.73831 3.659336,2.36449 3.208955,3.20896 2.983767,2.64598 2.758575,2.2519 2.758576,1.80152 0.731867,0.95705 -0.281486,2.81489 -0.225191,2.53338 -0.619273,2.81487 -1.407436,4.22232 -0.844461,0.45037 -3.321551,-1.97041 -1.632627,-2.1956 -2.308195,-2.42079 -2.477091,-1.97042 -2.533387,-1.85781 -4.503796,-3.43415 -3.940822,-2.64598 -0.562975,-0.56297 1.970411,-2.70228 2.195602,-2.75857 2.533385,-1.74523 z"
       id="path47232" /><path
       style="display:inline;fill:#eba554;fill-opacity:1;stroke-width:267.819;stroke-linejoin:bevel"
       d="m 49.745552,17.276895 5.686046,-1.632627 5.404556,-1.57633 4.841581,-1.801519 4.560096,-2.4207893 3.884526,-1.6889252 c 0,0 3.040062,-0.957058 3.940826,-0.6192736 C 78.963936,7.8752153 82.34179,7.31224 82.34179,7.31224 l 5.066771,-0.9007587 4.616395,-0.3940806 4.672689,0.2251879 4.503785,0.225191 c 4.20467,0.046441 5.43733,0.063416 7.47108,2.18477 l 3.56323,6.2035534 3.32155,5.348261 3.32155,4.391204 8.44463,6.755693 5.12307,4.728989 3.04006,7.093483 1.23854,3.603035 1.85782,4.053417 0.16889,5.573452 -1.68892,4.95418 -1.23855,9.457979 -1.63263,6.924588 -0.11259,8.782406 -2.92747,12.948424 -4.72899,15.087726 -3.65933,7.37497 -4.33491,3.71564 -5.01047,4.50379 -4.44751,4.27861 -3.82822,3.88453 -2.1956,1.46373 -7.26238,1.01336 -6.08012,0.50667 -5.967525,-1.57633 -10.696523,-3.15266 -7.14978,-2.1956 -6.361614,-0.84446 -7.037186,-0.11259 -3.77193,0.39408 -2.251899,-1.52003 -3.940823,-3.32155 -4.053419,-3.65934 -5.066771,-3.77193 -4.418336,-2.23796 -0.23885,-4.61777 -5.175083,-9.47437 -3.184667,-4.21969 -3.105049,-5.493552 -6.608182,-8.439382 -2.9458142,-5.015845 4.6973822,-13.057137 4.140067,-8.598594 3.423515,-9.394765 4.697382,-10.987095 4.299299,-8.280134 3.582749,-7.961663 5.652783,-3.184667 6.289713,-1.751565 z"
       id="path4960"
       sodipodi:nodetypes="ccccccsccccccccccccccccccccccccccccccccccccccccccccccccccccccc" /><path
       style="display:none;fill:#cb7932;fill-opacity:0.996078;stroke-width:264.583;stroke-linejoin:bevel"
       d="m 162.38047,140.42284 -4.14941,3.79267 -1.66852,1.72414 -1.6129,2.11345 -1.33481,3.2258 -0.16685,3.11457 1.9466,-1.77975 1.22358,-0.38932 1.50166,-1.50167 1.6129,-1.66852 2.5584,-0.6674 0.11123,-3.50389 -0.0354,-2.27076 z"
       id="path47235"
       sodipodi:nodetypes="cccccccccccccc" /><path
       style="fill:url(#linearGradient65632);fill-opacity:1;stroke-width:267.819;stroke-linejoin:bevel"
       d="m 129.01238,141.46914 0.0563,-3.94083 0.16889,-2.2519 -1.01335,-4.56009 -1.80152,-4.22231 -1.80152,-2.98376 -2.0267,-2.53339 2.42079,-2.53338 1.57632,-3.82824 0.84447,-3.43414 1.57632,-5.12307 1.35115,-4.84158 1.40743,-5.01049 1.06966,-3.60304 0.84446,-2.533396 0.28148,-2.983762 0.0563,-2.308199 v -3.659335 l -0.1126,-3.771925 0.95707,-1.914118 0.45038,-2.814872 0.67556,-4.334907 0.84446,-5.235662 2.02671,-6.811987 -0.19703,-5.657903 -0.76002,-1.548187 2.36449,-2.786721 4.6727,5.263811 2.81487,3.546745 1.60447,2.58968 0.0563,2.47709 -0.50669,5.066771 -0.59113,5.714193 -0.36592,3.912676 -0.39408,3.912676 -0.14075,4.531949 -0.22519,4.728989 -0.22519,4.728984 -0.0563,4.081573 -0.14076,3.828227 -0.19704,3.5749 -0.33778,2.75858 -0.25334,3.80007 -1.52002,4.53195 -0.92892,2.87117 -1.46373,4.78528 -0.73187,3.20896 -0.0563,3.82823 -0.36593,2.89931 -3.12451,2.30821 -4.61639,3.26525 -2.3645,1.60448 z"
       id="path47335"
       sodipodi:nodetypes="ccccccccccccccccccccccccccccccccccccccccccccccccccccc" /><path
       style="fill:#db9144;fill-opacity:0.996078;stroke-width:267.819;stroke-linejoin:bevel"
       d="m 132.03171,35.863602 -2.94581,-2.746774 -3.18467,-2.945814 -2.78658,-1.870991 -2.18945,-1.154443 -2.50793,-2.826392 -2.94582,-4.060448 -2.4283,-3.463325 -1.59234,-2.348689 c -2.47646,-4.5734543 -3.96099,-6.3628515 0.15923,-2.30888 3.28716,0.80851 4.11233,0.928636 7.52378,2.786581 4.13623,1.844073 4.15427,2.256653 5.7523,4.279395 0.80155,0.793426 1.20805,1.618356 2.64726,2.906009 1.82026,2.770381 2.02663,3.41879 2.86619,7.006263 l 0.35828,1.572431 0.39808,1.472906 0.31847,1.671951 z"
       id="path47364"
       sodipodi:nodetypes="cccccccccccccccccc" /><path
       style="fill:#db9144;fill-opacity:0.996078;stroke-width:267.819;stroke-linejoin:bevel"
       d="m 8.1417182,80.104874 1.7452229,-3.715635 1.7452209,-5.291962 1.914115,-5.404552 2.42079,-3.884526 1.520033,-3.997126 0.562974,1.857818 1.125951,3.659334 0.788165,3.828236 0.281486,2.927462 -0.337784,3.152663 -1.294842,2.814871 -3.37785,3.940826 -3.265253,2.139299 -3.0963618,0.450382 -1.4074357,-0.281491 z"
       id="path65728" /><path
       style="display:inline;fill:#db9144;fill-opacity:0.996078;stroke-width:267.819;stroke-linejoin:bevel"
       d="m 48.084778,17.952465 -0.422233,0.957057 0.02815,0.844461 -0.394083,1.885968 -0.957057,1.351137 -1.745222,1.857818 -1.520032,1.688925 -1.660774,1.097799 -1.154098,0.788165 -1.238546,1.154098 -1.435584,1.351141 -0.872612,0.42223 -0.760015,0.08445 -0.900759,-0.394083 -1.182249,0.506676 -1.379288,1.125951 -1.52003,1.54818 -1.914116,2.026709 -1.801518,1.942255 -1.210396,1.294845 -0.61927,-0.08442 -0.02815,-0.478532 1.351141,-2.645979 1.154098,-2.533387 1.379288,-2.2519 0.928907,-2.533385 0.591125,-1.717073 0.957056,-1.942264 0.309637,-0.760015 1.379288,-1.266691 2.111155,-1.238547 2.02671,-1.013353 1.998558,-1.041504 1.745223,-0.478529 1.942264,-0.337784 1.351138,-0.67557 1.12595,-0.22519 1.520032,-0.08445 z"
       id="path65774" /><path
       style="display:inline;fill:#fbd296;fill-opacity:1;stroke-width:267.819;stroke-linejoin:bevel"
       d="m 95.049784,6.2064004 3.383704,0.159233 3.343902,-0.039811 3.3837,0.199041 c 0,0 1.55253,0.7165509 1.59234,0.8757829 0.0398,0.159235 -0.55731,0.7961679 -0.55731,0.7961679 L 104.76301,8.0773882 103.2503,8.5550891 101.45892,9.1920204 99.030623,9.1522094 96.403268,8.833742 93.656499,8.793931 92.10397,8.913354 89.874705,10.107606 87.9241,10.227029 83.863648,9.8687542 79.962431,9.5502873 l -3.264282,-0.318466 -1.552518,0.278658 -1.552529,0.9553997 -1.313673,0.51751 -1.472908,1.39329 -1.632142,0.636933 -5.612973,2.42831 -5.812017,1.870991 c -5.873644,1.498586 -6.492313,2.121227 -8.718023,3.741983 -0.700539,0.537826 -1.013007,0.744076 -1.786959,0.618027 0.226264,-0.833098 0.301256,-1.77149 0.314052,-2.688062 0.554352,-0.958703 0.748051,-1.06767 1.671948,-1.671948 l 4.219684,-1.273867 c 5.657617,-1.473726 9.715206,-2.736461 15.604862,-5.891634 3.204727,-1.551201 6.120113,-2.5446223 7.163014,-2.7540173 2.135149,0.1028385 3.947983,0.5849933 6.212586,1.1616863 2.192005,0.5309791 3.385405,0.5538566 5.254701,0.3980824 1.418044,-0.3462724 1.91682,-0.605625 3.184655,-1.2738723 l 1.671952,-1.0350149 0.875782,0.119424 z"
       id="path65777"
       sodipodi:nodetypes="ccccsccccccccccccccccccccccccccccccccc" /><path
       style="display:inline;fill:#fbd296;fill-opacity:1;stroke-width:267.819;stroke-linejoin:bevel"
       d="m 36.133469,32.678938 -6.050866,7.006264 -4.776998,4.37892 -2.149651,3.025425 -0.636933,3.503138 -2.14965,5.413935 -1.433098,1.433096 -0.9554,1.433096 -0.318467,-1.353484 1.9108,-5.334313 1.433099,-3.98083 2.308884,-5.891637 1.831182,-2.945814 0.796168,-0.238846 2.786582,-3.105051 3.582748,-3.264284 2.547733,-1.831182 2.308884,-0.398084 0.716548,0.71655 z"
       id="path75564" /><path
       style="display:inline;fill:#f8cf92;fill-opacity:1;stroke-width:267.819;stroke-linejoin:bevel"
       d="m 19.344917,63.046744 1.12595,3.603035 0.281486,3.546744 -0.957057,3.715625 -1.80152,3.546745 -2.083004,2.927472 -2.477091,2.702281 -1.407436,0.337781 -1.688925,-0.731863 1.970414,-1.745227 2.589682,-1.745217 2.083007,-2.927472 1.069651,-0.957054 0.844462,-2.026718 0.619273,-2.026698 0.22519,-1.688927 v -1.914118 l -0.45038,-2.58968 z"
       id="path75566" /><g
       id="g80022"
       transform="matrix(1.0122305,0,0,1.0122305,-30.027967,-64.692225)"
       style="display:inline;fill:#aa0000"><path
         fill="#000000"
         opacity="1"
         stroke="none"
         d="m 104.70241,98.249853 c -4.06485,-0.01495 -7.813079,0.987212 -11.42448,2.608467 -1.003112,0.45032 -2.105011,0.87429 -3.059699,0.0189 -0.991931,-0.888707 -0.914556,-2.091569 -0.579926,-3.278733 0.406619,-1.442561 1.329732,-2.553361 2.35764,-3.582022 3.615874,-3.618508 8.095225,-4.880144 13.078645,-4.782799 0.83943,0.01642 1.68197,-0.150509 2.52208,-0.141287 4.00351,0.04395 7.98531,0.348221 11.96673,0.809704 2.23539,0.259102 4.48901,0.331568 6.70159,0.818211 1.76833,0.388924 3.20207,1.666238 3.47827,3.362022 0.23326,1.432143 -0.47327,2.533314 -1.44759,3.51343 -1.27151,1.279058 -2.81487,2.260457 -3.92745,3.717934 -2.53869,3.32566 -4.34826,6.9941 -5.28094,11.07467 -0.17425,0.76231 0.16524,1.39145 0.89769,1.79523 3.02813,1.66933 6.40783,1.99592 9.72156,2.57779 0.4153,0.0729 0.84134,0.10463 1.24587,0.21567 1.54203,0.42338 2.6612,-0.13355 3.7748,-1.24055 2.60738,-2.59191 4.84569,-5.50874 7.38813,-8.15425 0.84635,-0.88066 1.88719,-1.08936 2.88904,-0.68889 2.32025,0.92741 4.14919,3.02107 4.01182,5.75967 -0.0649,1.29366 -0.36635,2.5829 -1.06999,3.69737 -2.52179,3.99399 -5.68531,7.37862 -9.64785,9.98654 -1.68143,1.10663 -3.49853,1.48501 -5.49824,1.16939 -2.70073,-0.42624 -5.41026,-0.80059 -8.12148,-1.15546 -1.58616,-0.20757 -3.18065,-0.19434 -4.76677,0.0624 -0.6956,0.1126 -1.14345,0.49414 -1.32972,1.18042 -0.37803,1.39265 -0.89471,2.76453 -1.10128,4.18184 -0.18691,1.28241 0.19275,2.5648 1.36731,3.32696 1.7065,1.10733 3.09873,2.55696 4.55607,3.9385 2.28264,2.16394 4.16196,4.66845 5.90107,7.26782 1.352,2.02078 2.40787,4.21551 3.43692,6.42338 2.22511,4.77412 4.63525,9.45509 7.17569,14.07152 1.18733,2.15759 2.25031,4.38918 3.26414,6.63488 0.76325,1.69068 0.12382,3.49751 -1.43028,4.50487 -1.18924,0.77092 -2.39882,1.49436 -3.77086,1.91939 -2.4253,0.75131 -3.54458,0.0357 -4.46002,-1.6159 -2.14402,-3.86825 -4.41235,-7.6675 -6.62112,-11.50001 -0.67527,-1.17169 -1.35896,-2.34127 -1.96742,-3.54785 -0.48926,-0.97019 -1.29796,-1.65031 -2.00438,-2.4216 -0.38317,-0.41837 -0.92609,-0.50053 -1.50391,-0.41758 -1.51141,0.21697 -2.88381,0.82435 -4.26717,1.4244 -4.12314,1.78849 -7.96551,4.12738 -11.99704,6.09651 -1.47377,0.71985 -2.82975,0.61063 -4.05661,-0.33953 -1.301297,-1.0078 -2.252771,-2.32738 -2.752478,-3.9338 -0.37718,-1.21254 0.0573,-2.23937 0.902274,-3.01257 1.215014,-1.11179 2.489034,-2.18767 3.860534,-3.09306 1.99996,-1.32027 4.18481,-2.36616 6.15032,-3.73133 2.01309,-1.39819 4.28706,-2.30772 6.31107,-3.66572 1.06172,-0.71237 1.09979,-0.89917 0.50412,-2.01738 -0.53526,-1.00484 -1.39189,-1.51478 -2.39484,-1.93472 -2.06691,-0.86539 -4.26857,-0.98336 -6.44193,-1.25661 -3.40365,-0.4279 -6.78471,-0.0822 -10.162555,0.34789 -1.183988,0.15077 -2.028884,0.77974 -2.529145,1.81292 -1.094668,2.26086 -2.598787,4.26279 -3.907187,6.3882 -1.921714,3.12168 -3.7946,6.26491 -5.419582,9.57476 -1.711636,3.48636 -3.134079,7.09769 -4.878968,10.56708 -1.169822,2.32597 -2.93537,2.61323 -4.757954,2.35286 -1.59728,-0.22819 -3.04102,-0.94184 -4.293891,-1.967 -1.130706,-0.92524 -1.261158,-1.86507 -0.66943,-3.4154 1.525209,-3.99599 3.535628,-7.76896 5.346586,-11.63233 1.298922,-2.77104 2.662601,-5.52411 4.19839,-8.16847 1.782628,-3.06936 3.121704,-6.353 4.831045,-9.44853 0.882474,-1.5981 1.854583,-3.16301 3.079328,-4.54393 1.672953,-1.8863 3.943923,-2.42635 6.285193,-2.83266 2.688339,-0.46655 5.402423,-0.29367 8.10686,-0.36408 0.42156,-0.0113 0.84643,0.019 1.26447,-0.0229 0.88781,-0.0888 1.45962,-0.59672 1.58829,-1.47075 0.35261,-2.39512 0.22155,-4.80934 0.16251,-7.21493 -0.0191,-0.78017 -0.64665,-1.15901 -1.3866,-1.34192 -1.96676,-0.48618 -3.98786,-0.57359 -5.985478,-0.82056 -2.326056,-0.28754 -4.63543,-0.69238 -6.974787,-0.89254 -4.204431,-0.35971 -8.361656,-0.28105 -12.379488,1.17918 -1.706792,0.6203 -3.210151,1.63315 -4.685343,2.68462 -0.655012,0.46687 -1.230378,1.15906 -2.246551,0.7111 -0.861238,-0.37967 -1.218108,-0.91011 -1.230459,-1.85996 -0.04272,-3.28425 0.556722,-6.45305 1.561802,-9.5591 0.380368,-1.17544 1.220105,-1.94103 2.372273,-2.27633 3.688532,-1.07341 7.464105,-1.10581 11.259661,-0.85009 2.218774,0.14948 4.443521,0.2215 6.658886,0.40794 4.100995,0.34513 8.212934,0.48579 12.318694,0.73837 0.78708,0.0484 1.47013,-0.26787 2.17633,-0.51481 0.33268,-0.11632 0.40917,-0.42183 0.44331,-0.72934 0.31681,-2.85383 1.13063,-5.59093 1.92406,-8.33545 0.22621,-0.78248 0.44062,-1.55972 0.79245,-2.29849 0.16625,-0.34909 0.28584,-0.72866 0.36988,-1.107017 0.20802,-0.936598 -0.22456,-1.557367 -1.1867,-1.581893 -1.50284,-0.03829 -3.00895,0.04056 -4.58581,-0.162721 z"
         id="path76199"
         style="display:none;fill:#b96726;fill-opacity:1;stroke:none;stroke-width:1;stroke-linejoin:round;stroke-dasharray:none;stroke-opacity:1;paint-order:markers fill stroke" /><path
         fill="#000000"
         opacity="1"
         stroke="none"
         d="m 104.70241,98.249853 c -4.06485,-0.01495 -7.813079,0.987212 -11.42448,2.608467 -1.003112,0.45032 -2.105011,0.87429 -3.059699,0.0189 -0.991931,-0.888707 -0.914556,-2.091569 -0.579926,-3.278733 0.406619,-1.442561 1.329732,-2.553361 2.35764,-3.582022 3.615874,-3.618508 8.095225,-4.880144 13.078645,-4.782799 0.83943,0.01642 1.68197,-0.150509 2.52208,-0.141287 4.00351,0.04395 7.98531,0.348221 11.96673,0.809704 2.23539,0.259102 4.48901,0.331568 6.70159,0.818211 1.76833,0.388924 3.20207,1.666238 3.47827,3.362022 0.23326,1.432143 -0.47327,2.533314 -1.44759,3.51343 -1.27151,1.279058 -2.81487,2.260457 -3.92745,3.717934 -2.53869,3.32566 -4.34826,6.9941 -5.28094,11.07467 -0.17425,0.76231 0.16524,1.39145 0.89769,1.79523 3.02813,1.66933 6.40783,1.99592 9.72156,2.57779 0.4153,0.0729 0.84134,0.10463 1.24587,0.21567 1.54203,0.42338 2.6612,-0.13355 3.7748,-1.24055 2.60738,-2.59191 4.84569,-5.50874 7.38813,-8.15425 0.84635,-0.88066 1.88719,-1.08936 2.88904,-0.68889 2.32025,0.92741 4.14919,3.02107 4.01182,5.75967 -0.0649,1.29366 -0.36635,2.5829 -1.06999,3.69737 -2.52179,3.99399 -5.68531,7.37862 -9.64785,9.98654 -1.68143,1.10663 -3.49853,1.48501 -5.49824,1.16939 -2.70073,-0.42624 -5.41026,-0.80059 -8.12148,-1.15546 -1.58616,-0.20757 -3.18065,-0.19434 -4.76677,0.0624 -0.6956,0.1126 -1.14345,0.49414 -1.32972,1.18042 -0.37803,1.39265 -0.89471,2.76453 -1.10128,4.18184 -0.18691,1.28241 0.19275,2.5648 1.36731,3.32696 1.7065,1.10733 3.09873,2.55696 4.55607,3.9385 2.28264,2.16394 4.16196,4.66845 5.90107,7.26782 1.352,2.02078 2.40787,4.21551 3.43692,6.42338 2.22511,4.77412 4.63525,9.45509 7.17569,14.07152 1.18733,2.15759 2.25031,4.38918 3.26414,6.63488 0.76325,1.69068 0.12382,3.49751 -1.43028,4.50487 -1.18924,0.77092 -2.39882,1.49436 -3.77086,1.91939 -2.4253,0.75131 -3.54458,0.0357 -4.46002,-1.6159 -2.14402,-3.86825 -4.41235,-7.6675 -6.62112,-11.50001 -0.67527,-1.17169 -1.35896,-2.34127 -1.96742,-3.54785 -0.48926,-0.97019 -1.29796,-1.65031 -2.00438,-2.4216 -0.38317,-0.41837 -0.92609,-0.50053 -1.50391,-0.41758 -1.51141,0.21697 -2.88381,0.82435 -4.26717,1.4244 -4.12314,1.78849 -7.96551,4.12738 -11.99704,6.09651 -1.47377,0.71985 -2.82975,0.61063 -4.05661,-0.33953 -1.301297,-1.0078 -2.252771,-2.32738 -2.752478,-3.9338 -0.37718,-1.21254 0.0573,-2.23937 0.902274,-3.01257 1.215014,-1.11179 2.489034,-2.18767 3.860534,-3.09306 1.99996,-1.32027 4.18481,-2.36616 6.15032,-3.73133 2.01309,-1.39819 4.28706,-2.30772 6.31107,-3.66572 1.06172,-0.71237 1.09979,-0.89917 0.50412,-2.01738 -0.53526,-1.00484 -1.39189,-1.51478 -2.39484,-1.93472 -2.06691,-0.86539 -4.26857,-0.98336 -6.44193,-1.25661 -3.40365,-0.4279 -6.78471,-0.0822 -10.162555,0.34789 -1.183988,0.15077 -2.028884,0.77974 -2.529145,1.81292 -1.094668,2.26086 -2.598787,4.26279 -3.907187,6.3882 -1.921714,3.12168 -3.7946,6.26491 -5.419582,9.57476 -1.711636,3.48636 -3.134079,7.09769 -4.878968,10.56708 -1.169822,2.32597 -2.93537,2.61323 -4.757954,2.35286 -1.59728,-0.22819 -3.04102,-0.94184 -4.293891,-1.967 -1.130706,-0.92524 -1.261158,-1.86507 -0.66943,-3.4154 1.525209,-3.99599 3.535628,-7.76896 5.346586,-11.63233 1.298922,-2.77104 2.662601,-5.52411 4.19839,-8.16847 1.782628,-3.06936 3.121704,-6.353 4.831045,-9.44853 0.882474,-1.5981 1.854583,-3.16301 3.079328,-4.54393 1.672953,-1.8863 3.943923,-2.42635 6.285193,-2.83266 2.688339,-0.46655 5.402423,-0.29367 8.10686,-0.36408 0.42156,-0.0113 0.84643,0.019 1.26447,-0.0229 0.88781,-0.0888 1.45962,-0.59672 1.58829,-1.47075 0.35261,-2.39512 0.22155,-4.80934 0.16251,-7.21493 -0.0191,-0.78017 -0.64665,-1.15901 -1.3866,-1.34192 -1.96676,-0.48618 -3.98786,-0.57359 -5.985478,-0.82056 -2.326056,-0.28754 -4.63543,-0.69238 -6.974787,-0.89254 -4.204431,-0.35971 -8.361656,-0.28105 -12.379488,1.17918 -1.706792,0.6203 -3.210151,1.63315 -4.685343,2.68462 -0.655012,0.46687 -1.230378,1.15906 -2.246551,0.7111 -0.861238,-0.37967 -1.218108,-0.91011 -1.230459,-1.85996 -0.04272,-3.28425 0.556722,-6.45305 1.561802,-9.5591 0.380368,-1.17544 1.220105,-1.94103 2.372273,-2.27633 3.688532,-1.07341 7.464105,-1.10581 11.259661,-0.85009 2.218774,0.14948 4.443521,0.2215 6.658886,0.40794 4.100995,0.34513 8.212934,0.48579 12.318694,0.73837 0.78708,0.0484 1.47013,-0.26787 2.17633,-0.51481 0.33268,-0.11632 0.40917,-0.42183 0.44331,-0.72934 0.31681,-2.85383 1.13063,-5.59093 1.92406,-8.33545 0.22621,-0.78248 0.44062,-1.55972 0.79245,-2.29849 0.16625,-0.34909 0.28584,-0.72866 0.36988,-1.107017 0.20802,-0.936598 -0.22456,-1.557367 -1.1867,-1.581893 -1.50284,-0.03829 -3.00895,0.04056 -4.58581,-0.162721 z"
         id="path1"
         style="display:inline;fill:#b96726;fill-opacity:1;stroke:none;stroke-width:1;stroke-linejoin:round;stroke-dasharray:none;stroke-opacity:1;paint-order:markers fill stroke;filter:url(#filter31)" /></g></g></svg>
