<?xml version="1.0" encoding="UTF-8" standalone="no"?>
<!-- Created with Inkscape (http://www.inkscape.org/) -->

<svg
   width="160mm"
   height="160mm"
   viewBox="0 0 160 160"
   version="1.1"
   id="svg5"
   xml:space="preserve"
   inkscape:version="1.4.2 (ebf0e940, 2025-05-08)"
   sodipodi:docname="app.svg"
   xmlns:inkscape="http://www.inkscape.org/namespaces/inkscape"
   xmlns:sodipodi="http://sodipodi.sourceforge.net/DTD/sodipodi-0.dtd"
   xmlns="http://www.w3.org/2000/svg"
   xmlns:svg="http://www.w3.org/2000/svg"><sodipodi:namedview
     id="namedview7"
     pagecolor="#ffffff"
     bordercolor="#000000"
     borderopacity="0.25"
     inkscape:showpageshadow="2"
     inkscape:pageopacity="0.0"
     inkscape:pagecheckerboard="0"
     inkscape:deskcolor="#d1d1d1"
     inkscape:document-units="mm"
     showgrid="false"
     inkscape:zoom="0.45995123"
     inkscape:cx="251.11358"
     inkscape:cy="196.75999"
     inkscape:window-width="1264"
     inkscape:window-height="888"
     inkscape:window-x="0"
     inkscape:window-y="34"
     inkscape:window-maximized="0"
     inkscape:current-layer="layer2" /><defs
     id="defs2"><linearGradient
       id="linearGradient65606"
       inkscape:swatch="solid"><stop
         style="stop-color:#cb7932;stop-opacity:1;"
         offset="0"
         id="stop65604" /></linearGradient><filter
       style="color-interpolation-filters:sRGB"
       inkscape:label="Drop Shadow"
       id="filter80006"
       x="-0.030477617"
       y="-0.026353636"
       width="1.0736542"
       height="1.063688"><feFlood
         flood-opacity="0.498039"
         flood-color="rgb(0,0,0)"
         result="flood"
         id="feFlood79996" /><feComposite
         in="flood"
         in2="SourceGraphic"
         operator="out"
         result="composite1"
         id="feComposite79998" /><feGaussianBlur
         in="composite1"
         stdDeviation="1"
         result="blur"
         id="feGaussianBlur80000" /><feOffset
         dx="1"
         dy="1"
         result="offset"
         id="feOffset80002" /><feComposite
         in="offset"
         in2="SourceGraphic"
         operator="atop"
         result="composite2"
         id="feComposite80004" /></filter><clipPath
       clipPathUnits="userSpaceOnUse"
       id="clipPath1"><path
         id="path1"
         style="display:inline;fill:#000000;stroke-width:0.264583"
         d="M -17.832503,-17.832503 V 169.12094 H 178.32503 V -17.832503 Z m 96.717095,43.32242 c 4.052475,0.04449 8.082841,0.352461 12.112953,0.819588 2.26273,0.262271 4.543925,0.33578 6.783568,0.828374 1.789956,0.393681 3.241657,1.686369 3.521227,3.402893 0.23612,1.449658 -0.4793,2.564268 -1.465539,3.556373 -1.287063,1.294699 -2.849282,2.288289 -3.975468,3.763592 -2.569739,3.366336 -4.401325,7.079692 -5.345411,11.210171 -0.176382,0.771631 0.167063,1.408224 0.908473,1.816942 3.065163,1.689748 6.486483,2.020157 9.840745,2.609143 0.42038,0.07379 0.85142,0.106193 1.2609,0.218591 1.56089,0.428559 2.69374,-0.135197 3.82096,-1.255736 2.63927,-2.623611 4.90508,-5.576412 7.47861,-8.254278 0.8567,-0.891429 1.91027,-1.102482 2.92437,-0.697116 2.34863,0.938755 4.19978,3.058041 4.06073,5.830136 -0.0657,1.309484 -0.37089,2.614308 -1.08313,3.742407 -2.55264,4.042838 -5.75481,7.469129 -9.76582,10.108943 -1.70199,1.120167 -3.54138,1.502873 -5.56555,1.183391 -2.73376,-0.431453 -5.476307,-0.810228 -8.220684,-1.169437 -1.605561,-0.210108 -3.219511,-0.196834 -4.825029,0.06305 -0.704107,0.113978 -1.157624,0.500603 -1.346171,1.195277 -0.382654,1.409681 -0.905566,2.798172 -1.114661,4.232817 -0.189195,1.298094 0.194969,2.596269 1.383896,3.367752 1.727369,1.120873 3.136955,2.587884 4.612121,3.986321 2.310556,2.190406 4.212897,4.725495 5.973278,7.356655 1.36854,2.045496 2.43722,4.267057 3.47886,6.501929 2.25232,4.832511 4.69213,9.571201 7.26364,14.244095 1.20185,2.18398 2.27744,4.44271 3.30367,6.71587 0.77259,1.71135 0.12565,3.54025 -1.44746,4.55992 -1.20378,0.78035 -2.42851,1.51281 -3.81733,1.94303 -2.45497,0.7605 -3.58782,0.0357 -4.51446,-1.63607 -2.17024,-3.91556 -4.46613,-7.76125 -6.701915,-11.64064 -0.683527,-1.18602 -1.375706,-2.36965 -1.991608,-3.59099 -0.495245,-0.982051 -1.313757,-1.670285 -2.028817,-2.45101 -0.387856,-0.423486 -0.937501,-0.506677 -1.522389,-0.422711 -1.529895,0.219623 -2.918836,0.834382 -4.319114,1.44177 -4.173569,1.810361 -8.063124,4.177461 -12.143962,6.170681 -1.491795,0.72865 -2.864345,0.61813 -4.106209,-0.34365 -1.317212,-1.02013 -2.280576,-2.3556 -2.786393,-3.98167 -0.381794,-1.227363 0.05833,-2.266763 0.913638,-3.049419 1.229876,-1.125389 2.519497,-2.214613 3.907771,-3.131076 2.024422,-1.336419 4.235913,-2.395165 6.225461,-3.777031 2.037712,-1.41529 4.339476,-2.33576 6.38824,-3.710368 1.074706,-0.721082 1.113002,-0.910365 0.510048,-2.042253 -0.541809,-1.01713 -1.408925,-1.532943 -2.424142,-1.95802 -2.09219,-0.875974 -4.320593,-0.995682 -6.520534,-1.272272 -3.445277,-0.433134 -6.867552,-0.08292 -10.286709,0.352433 -1.19847,0.152614 -2.053672,0.789212 -2.56005,1.835028 -1.108057,2.288513 -2.630914,4.314867 -3.955315,6.466274 -1.945219,3.15986 -3.840596,6.341583 -5.485453,9.691914 -1.732571,3.52899 -3.172486,7.18416 -4.938717,10.69598 -1.18413,2.35442 -2.971369,2.64532 -4.816243,2.38177 -1.616815,-0.23098 -3.07831,-0.95339 -4.346506,-1.99109 -1.144534,-0.93656 -1.276442,-1.88787 -0.677476,-3.45716 1.543862,-4.04486 3.578966,-7.86385 5.412073,-11.774467 1.314807,-2.80493 2.694779,-5.591527 4.249351,-8.268229 1.80443,-3.106899 3.159893,-6.430883 4.890141,-9.564275 0.893268,-1.617644 1.877398,-3.201392 3.117122,-4.599202 1.693416,-1.909371 3.991983,-2.456246 6.361885,-2.867525 2.721221,-0.472255 5.468705,-0.29718 8.206219,-0.368451 0.426715,-0.01143 0.856872,0.01916 1.280025,-0.02326 0.898668,-0.08989 1.47741,-0.604078 1.607653,-1.488797 0.356923,-2.424414 0.224095,-4.867902 0.164333,-7.302913 -0.01934,-0.789712 -0.654534,-1.173427 -1.403532,-1.358574 -1.990815,-0.492125 -4.036497,-0.580448 -6.058546,-0.83044 -2.354506,-0.291057 -4.692065,-0.701212 -7.060033,-0.903822 -4.255855,-0.364109 -8.464048,-0.284363 -12.531019,1.193726 -1.727668,0.627888 -3.249112,1.653334 -4.742346,2.717665 -0.663022,0.47258 -1.24568,1.173292 -2.274279,0.719852 -0.871771,-0.384313 -1.232901,-0.92162 -1.245402,-1.88309 -0.04324,-3.324418 0.563409,-6.531856 1.580782,-9.675894 0.385019,-1.189816 1.235144,-1.964852 2.401403,-2.304251 3.733644,-1.086541 7.55526,-1.119262 11.397237,-0.860415 2.24591,0.15131 4.497697,0.224176 6.740157,0.412896 4.151151,0.34935 8.313547,0.492088 12.469522,0.747757 0.796708,0.04899 1.48813,-0.271454 2.202968,-0.521414 0.336749,-0.117742 0.413994,-0.42667 0.448551,-0.737939 0.320686,-2.888734 1.14455,-5.659641 1.947685,-8.437729 0.228976,-0.792049 0.4464,-1.578666 0.802534,-2.326473 0.168283,-0.353359 0.289071,-0.73736 0.374137,-1.120344 0.210566,-0.948052 -0.227052,-1.576628 -1.20096,-1.601454 -1.521219,-0.03876 -3.045949,0.04092 -4.642093,-0.164846 -4.114564,-0.01513 -7.908581,0.999582 -11.564152,2.640663 -1.015381,0.45583 -2.130605,0.884973 -3.096969,0.01913 -1.004062,-0.899579 -0.925766,-2.117495 -0.587044,-3.31918 0.411591,-1.460204 1.345938,-2.584376 2.386417,-3.625617 3.660098,-3.662765 8.194099,-4.939584 13.23847,-4.841048 0.849696,0.01662 1.702429,-0.152479 2.552816,-0.143144 z" /></clipPath></defs><g
     inkscape:groupmode="layer"
     id="layer2"
     inkscape:label="Layer 1"
     style="display:inline"><rect
       style="display:none;fill:#ffffff;fill-opacity:1;stroke-width:0.264583"
       id="rect2"
       width="153.58966"
       height="154.16487"
       x="4.3715596"
       y="2.8762105"
       ry="33.939285" /><rect
       style="display:none;fill:#f9f9f9;fill-opacity:1;stroke-width:0.24724"
       id="rect1"
       width="86.286331"
       height="104.29736"
       x="38.541225"
       y="20.530195" /><g
       id="g1"
       clip-path="url(#clipPath1)"
       style="display:inline;fill:#d3bc5f;fill-opacity:1"
       transform="matrix(0.99270824,0,0,0.99270824,0.59162334,0.58241276)"><path
         id="path403"
         style="display:inline;fill:#d3bc5f;fill-opacity:1;stroke-width:267.819;stroke-linejoin:bevel"
         d="M 105.57598,1.0123413 C 104.92909,0.9678622 104.2031,0.9742732 103.37405,1.0340453 90.034324,1.9958041 74.282495,2.6654253 67.382967,6.6440389 58.186301,11.164945 54.190626,12.492025 38.442098,17.233057 26.032837,19.546482 26.213766,26.967192 20.727417,35.863444 18.48146,40.366812 13.332229,53.505583 10.536825,60.067135 8.6581261,64.984632 5.1813999,73.702361 2.6944092,80.926843 c -1.6576611,2.076064 1.6607689,12.1687 3.861263,20.978567 3.9850418,14.62352 1.9873572,21.16512 9.8329918,27.18955 5.348318,4.16225 14.4503,10.70818 19.107877,15.88327 4.179872,4.02063 4.126941,6.24658 25.039299,8.39949 15.722837,1.11799 18.590755,3.38364 33.558675,4.85655 11.862875,-0.15923 14.934655,2.10162 21.416785,-1.67173 5.31242,-3.51389 7.88194,-5.53348 19.06808,-12.69897 8.6384,-5.33432 11.18068,-6.86913 11.70368,-12.77855 0.4039,-2.48476 1.23948,-6.39687 2.58744,-11.86284 2.01012,-5.82648 4.33129,-10.94007 3.54294,-20.063375 -0.31494,-3.131051 -0.60298,-5.505538 -0.19896,-9.434566 0.0491,-3.681129 1.69791,-6.597686 1.11466,-12.977502 0.73366,-7.156551 5.08235,-16.811321 -0.95549,-24.402645 -4.23423,-5.660323 -8.45322,-11.443459 -9.79269,-13.693738 -8.60448,-14.038517 -7.21679,-20.704719 -13.1563,-23.030119 -6.56563,-3.273736 -9.4778,-4.634514 -13.93248,-7.1339313 -4.75047,-4.3629339 -5.38796,-7.162609 -9.9162,-7.4739624 z" /></g></g></svg>
