<?xml version="1.0" encoding="UTF-8" standalone="no"?>
<!-- Created with Inkscape (http://www.inkscape.org/) -->

<svg
   width="112.5"
   height="30"
   viewBox="0 0 29.765625 7.9374999"
   version="1.1"
   id="svg1"
   inkscape:version="1.4.2 (ebf0e940, 2025-05-08)"
   sodipodi:docname="deepink.svg"
   inkscape:export-filename="deepink2.svg"
   inkscape:export-xdpi="96"
   inkscape:export-ydpi="96"
   xmlns:inkscape="http://www.inkscape.org/namespaces/inkscape"
   xmlns:sodipodi="http://sodipodi.sourceforge.net/DTD/sodipodi-0.dtd"
   xmlns="http://www.w3.org/2000/svg"
   xmlns:svg="http://www.w3.org/2000/svg">
  <sodipodi:namedview
     id="namedview1"
     pagecolor="#ffffff"
     bordercolor="#000000"
     borderopacity="0.25"
     inkscape:showpageshadow="2"
     inkscape:pageopacity="0.0"
     inkscape:pagecheckerboard="0"
     inkscape:deskcolor="#d1d1d1"
     inkscape:document-units="mm"
     inkscape:zoom="5.8045525"
     inkscape:cx="68.911428"
     inkscape:cy="24.808114"
     inkscape:window-width="1728"
     inkscape:window-height="961"
     inkscape:window-x="0"
     inkscape:window-y="33"
     inkscape:window-maximized="0"
     inkscape:current-layer="layer1" />
  <defs
     id="defs1" />
  <g
     inkscape:label="Layer 1"
     inkscape:groupmode="layer"
     id="layer1"
     transform="translate(-26.986435,-85.078359)">
    <path
       style="font-weight:bold;font-size:3.175px;font-family:Montserrat;-inkscape-font-specification:'Montserrat Bold';fill:#1a1a1a;stroke-width:0.538977"
       d="m 27.777803,90.939739 v -4.527406 h 2.056737 q 0.73732,0 1.300011,0.28458 0.562692,0.278112 0.879611,0.782596 0.316918,0.504481 0.316918,1.196529 0,0.685577 -0.316918,1.196528 -0.316919,0.504482 -0.879611,0.789061 -0.562691,0.278112 -1.300011,0.278112 z m 1.047771,-0.860206 h 0.957224 q 0.45274,0 0.782594,-0.168162 0.336321,-0.174618 0.517418,-0.491546 0.187574,-0.316918 0.187574,-0.743787 0,-0.433339 -0.187574,-0.74379 -0.181097,-0.316919 -0.517418,-0.485079 -0.329854,-0.17464 -0.782594,-0.17464 h -0.957224 z m 5.950305,0.911948 q -0.59503,0 -1.047771,-0.232838 -0.446272,-0.232838 -0.692046,-0.633837 -0.245773,-0.407467 -0.245773,-0.924883 0,-0.523885 0.239306,-0.924885 0.245773,-0.407467 0.666176,-0.633838 0.420401,-0.232838 0.950754,-0.232838 0.51095,0 0.918417,0.219902 0.413935,0.213435 0.653239,0.620903 0.239307,0.400998 0.239307,0.963691 0,0.05822 -0.0066,0.135832 -0.0066,0.07116 -0.01304,0.135833 H 33.611489 V 88.89596 h 2.296042 l -0.388064,0.174618 q 0,-0.271644 -0.109941,-0.472144 -0.109962,-0.200489 -0.303982,-0.31045 -0.194033,-0.116421 -0.45274,-0.116421 -0.25871,0 -0.459209,0.116421 -0.194032,0.109961 -0.303984,0.316918 -0.10994,0.200489 -0.10994,0.478611 v 0.155225 q 0,0.284581 0.122876,0.504483 0.129354,0.213434 0.355725,0.329854 0.232837,0.109961 0.543288,0.109961 0.278113,0 0.48508,-0.08407 0.213434,-0.08407 0.388063,-0.252241 l 0.536822,0.582095 q -0.239306,0.271644 -0.601499,0.420402 -0.362193,0.14229 -0.834336,0.14229 z m 4.081138,0 q -0.59503,0 -1.047771,-0.232838 -0.446273,-0.232838 -0.692046,-0.633837 -0.245774,-0.407467 -0.245774,-0.924883 0,-0.523885 0.239306,-0.924885 0.245773,-0.407467 0.666176,-0.633838 0.420401,-0.232838 0.950755,-0.232838 0.51095,0 0.918417,0.219902 0.413935,0.213435 0.653239,0.620903 0.239306,0.400998 0.239306,0.963691 0,0.05822 -0.0066,0.135832 -0.0066,0.07116 -0.01283,0.135833 H 37.692798 V 88.89596 h 2.296042 l -0.388062,0.174618 q 0,-0.271644 -0.109961,-0.472144 -0.109943,-0.200489 -0.303985,-0.31045 -0.194031,-0.116421 -0.45274,-0.116421 -0.258709,0 -0.459209,0.116421 -0.194031,0.109961 -0.303983,0.316918 -0.109941,0.200489 -0.109941,0.478611 v 0.155225 q 0,0.284581 0.122876,0.504483 0.129356,0.213434 0.355726,0.329854 0.232839,0.109961 0.543289,0.109961 0.278113,0 0.485079,-0.08407 0.213435,-0.08407 0.388063,-0.252241 l 0.536821,0.582095 q -0.239305,0.271644 -0.601499,0.420402 -0.362192,0.14229 -0.834336,0.14229 z m 4.410992,0 q -0.439804,0 -0.769658,-0.194031 -0.329856,-0.194032 -0.51742,-0.588563 -0.181096,-0.400999 -0.181096,-1.008964 0,-0.614435 0.174619,-1.008967 0.174639,-0.39453 0.504482,-0.588562 0.329855,-0.194032 0.789063,-0.194032 0.491546,0 0.87961,0.226371 0.394531,0.219903 0.6209,0.620901 0.232839,0.400999 0.232839,0.944289 0,0.549756 -0.232839,0.950755 -0.226369,0.400997 -0.6209,0.620901 -0.388064,0.219902 -0.87961,0.219902 z m -2.056736,1.202997 v -4.734374 h 0.963691 v 0.71145 l -0.01935,1.034835 0.06467,1.028368 v 1.959721 z m 1.882108,-2.030865 q 0.25224,0 0.446272,-0.11642 0.20051,-0.116418 0.316918,-0.329854 0.122878,-0.219903 0.122878,-0.517416 0,-0.303984 -0.122878,-0.517419 -0.116418,-0.213435 -0.316918,-0.329854 -0.194032,-0.116419 -0.446272,-0.116419 -0.252242,0 -0.452741,0.116419 -0.200489,0.116419 -0.316919,0.329854 -0.11642,0.213435 -0.11642,0.517419 0,0.297513 0.11642,0.517416 0.116418,0.213436 0.316919,0.329854 0.200488,0.11642 0.452741,0.11642 z m 2.580624,0.776126 v -3.479635 h 1.008963 v 3.479635 z m 0.504481,-3.964714 q -0.278112,0 -0.45274,-0.161704 -0.174639,-0.161682 -0.174639,-0.400997 0,-0.239308 0.174639,-0.401001 0.174618,-0.161682 0.45274,-0.161682 0.278113,0 0.45274,0.155226 0.17464,0.148766 0.17464,0.388064 0,0.252239 -0.17464,0.420401 -0.168159,0.161703 -0.45274,0.161703 z m 1.442307,3.964714 v -3.479635 h 0.963691 v 0.963691 l -0.181097,-0.291047 q 0.187554,-0.349257 0.536821,-0.536822 0.349257,-0.187574 0.79553,-0.187574 0.413935,0 0.737321,0.168161 0.329854,0.161683 0.517418,0.504482 0.187575,0.336323 0.187575,0.866675 v 1.992059 h -1.008966 v -1.836833 q 0,-0.420402 -0.187574,-0.620901 -0.181096,-0.20051 -0.517417,-0.20051 -0.239307,0 -0.433339,0.103484 -0.187573,0.09701 -0.297515,0.303982 -0.103483,0.206968 -0.103483,0.530354 v 1.720414 z m 5.303532,-0.711449 0.02587,-1.228867 1.623398,-1.539319 h 1.202997 l -1.55872,1.584593 -0.523886,0.42687 z m -0.834335,0.711449 v -4.799051 h 1.008965 v 4.799051 z m 2.593556,0 -1.177124,-1.461705 0.633836,-0.782595 1.765689,2.2443 z"
       id="text1"
       aria-label="Deepink" />
  </g>
</svg>
